<?xml version="1.0" encoding="UTF-8"?>
<svg width="60px" height="60px" viewBox="0 0 60 60" version="1.1" xmlns="http://www.w3.org/2000/svg" xmlns:xlink="http://www.w3.org/1999/xlink">

    <g id="Agra-tour-website-1" stroke="none" stroke-width="1" fill="none" fill-rule="evenodd" opacity="0.7">
        <g id="Agra-Tour-Website-1" transform="translate(-687.000000, -4955.000000)" fill="#000000" fill-rule="nonzero">
            <g id="Customers" transform="translate(687.000000, 4955.000000)">
                <path d="M42.6091304,36.8543478 C42.0717391,36.3730435 41.246087,36.42 40.7673913,36.956087 C38.0465217,39.9965217 34.1230435,41.7391304 30,41.7391304 C25.8782609,41.7391304 21.9534783,39.9965217 19.2326087,36.956087 C18.7513043,36.42 17.9282609,36.3730435 17.3908696,36.8543478 C16.8534783,37.3343478 16.8091304,38.1586957 17.2891304,38.696087 C20.5043478,42.2882609 25.1373913,44.3478261 30,44.3478261 C34.863913,44.3478261 39.4969565,42.2869565 42.7108696,38.696087 C43.1908696,38.1586957 43.1452174,37.3343478 42.6091304,36.8543478 Z" id="Path"></path>
                <path d="M30,0 C13.4582609,0 0,13.4582609 0,30 C0,46.5417391 13.4582609,60 30,60 C46.5417391,60 60,46.5417391 60,30 C60,13.4582609 46.5417391,0 30,0 Z M30,57.3913043 C14.8956522,57.3913043 2.60869565,45.1043478 2.60869565,30 C2.60869565,14.8956522 14.8956522,2.60869565 30,2.60869565 C45.1043478,2.60869565 57.3913043,14.8956522 57.3913043,30 C57.3913043,45.1043478 45.1043478,57.3913043 30,57.3913043 Z" id="Shape"></path>
                <path d="M40.4347826,20.8695652 C36.8386957,20.8695652 33.9130435,23.7952174 33.9130435,27.3913043 C33.9130435,28.1113043 34.4973913,28.6956522 35.2173913,28.6956522 C35.9373913,28.6956522 36.5217391,28.1113043 36.5217391,27.3913043 C36.5217391,25.233913 38.2773913,23.4782609 40.4347826,23.4782609 C42.5921739,23.4782609 44.3478261,25.233913 44.3478261,27.3913043 C44.3478261,28.1113043 44.9321739,28.6956522 45.6521739,28.6956522 C46.3721739,28.6956522 46.9565217,28.1113043 46.9565217,27.3913043 C46.9565217,23.7952174 44.0308696,20.8695652 40.4347826,20.8695652 Z" id="Path"></path>
                <path d="M23.4782609,27.3913043 C23.4782609,28.1113043 24.0626087,28.6956522 24.7826087,28.6956522 C25.5026087,28.6956522 26.0869565,28.1113043 26.0869565,27.3913043 C26.0869565,23.7952174 23.1613043,20.8695652 19.5652174,20.8695652 C15.9691304,20.8695652 13.0434783,23.7952174 13.0434783,27.3913043 C13.0434783,28.1113043 13.6278261,28.6956522 14.3478261,28.6956522 C15.0678261,28.6956522 15.6521739,28.1113043 15.6521739,27.3913043 C15.6521739,25.233913 17.4078261,23.4782609 19.5652174,23.4782609 C21.7226087,23.4782609 23.4782609,25.233913 23.4782609,27.3913043 Z" id="Path"></path>
            </g>
        </g>
    </g>
</svg>
