<?xml version="1.0" encoding="UTF-8"?>
<svg width="44px" height="60px" viewBox="0 0 44 60" version="1.1" xmlns="http://www.w3.org/2000/svg" xmlns:xlink="http://www.w3.org/1999/xlink">

    <g id="Agra-tour-website-1" stroke="none" stroke-width="1" fill="none" fill-rule="evenodd">
        <g id="Agra-Tour-Website-1" transform="translate(-274.000000, -5364.000000)" fill="#000000" fill-rule="nonzero">
            <g id="money" transform="translate(274.000000, 5364.000000)">
                <path d="M7.92518933,43.6789772 C7.85606061,43.283144 7.47916667,43.0184659 7.08380679,43.0875947 L0.604166667,44.2211175 C0.208333333,44.2902462 -0.0563447273,44.6671401 0.0132575758,45.0629735 L2.5,59.2807765 C2.533144,59.4711175 2.64062497,59.6401515 2.79829552,59.7514205 C2.95643939,59.8622159 3.15198861,59.9057765 3.341856,59.872159 L9.82102279,58.7386364 C10.2163825,58.6695076 10.4810606,58.2926136 10.4119319,57.8972538 L10.2784091,57.1354167 L11.8196023,55.8839962 C12.4247159,55.3802084 13.2021781,55.1311553 13.9876895,55.1903408 L24.5530303,55.9625947 C24.5691287,55.9640152 24.5857007,55.9644886 24.6013258,55.9644886 C26.9403408,55.9725379 29.2211175,55.233428 31.1107954,53.8546401 C31.1382576,53.8342802 31.1647727,53.8120265 31.1893939,53.7878788 L43.7741478,41.4654356 C44.0492424,41.1964962 44.0667613,40.7594697 43.8148674,40.4687501 C42.3858902,38.8196023 39.9128788,38.5838068 38.1979166,39.9337121 L32.3664773,44.2945076 C31.1827651,42.8186553 29.2902462,42.1032196 27.4261364,42.4280303 L21.5175189,43.4611743 C20.5662879,43.6264205 19.5904356,43.5757576 18.6614583,43.3125 L18.0004735,43.1245265 C14.5871212,42.1439394 10.9095644,42.9280303 8.19270836,45.2154356 L7.92518933,43.6789772 Z M3.80776509,58.313447 L1.57102279,45.5284091 L6.6178977,44.6458333 L8.85416667,57.4308713 L3.80776509,58.313447 Z M17.6032196,44.5227273 L18.2642046,44.7107007 C19.4038825,45.0336175 20.6017993,45.0961175 21.7694128,44.8934659 L27.6775568,43.8598485 C29.4318182,43.5558713 31.1567235,44.530303 31.8020834,46.1893939 L22.8759469,47.7504735 C22.4805872,47.8196023 22.2159091,48.1964962 22.2850378,48.5923296 C22.3541667,48.9881629 22.7310606,49.252841 23.1268939,49.1832387 L32.8390152,47.484375 C33.2348485,47.4152462 33.4995265,47.0383522 33.4299242,46.6425189 C33.3645833,46.2689394 33.2580492,45.9034091 33.1126895,45.5530303 L39.0771781,41.0923296 C39.0819128,41.0885417 39.0871212,41.0847538 39.0923296,41.0804924 C39.9938447,40.3669508 41.2537879,40.3205492 42.2050189,40.9659091 L30.2102273,52.7116478 C28.5880681,53.8839962 26.6363636,54.513731 24.6344697,54.5099432 L14.0937501,53.7395833 C12.936553,53.6519886 11.7902462,54.0175189 10.8972538,54.7589962 L9.99195079,55.4943182 L8.49147733,46.9166667 C10.8603219,44.5089962 14.3570075,43.5904356 17.6032196,44.5227273 L17.6032196,44.5227273 Z" id="Shape"></path>
                <path d="M29.5383522,22.4242424 C29.9398674,22.4242424 30.265625,22.0984848 30.265625,21.6969697 C30.265625,21.2954545 29.9398674,20.969697 29.5383522,20.969697 L24.2509469,20.969697 C23.8494318,20.969697 23.5236742,21.2954545 23.5236742,21.6969697 C23.5236742,22.0984848 23.8494318,22.4242424 24.2509469,22.4242424 L25.763731,22.4242424 C26.3375947,22.4379735 26.8579545,22.7632576 27.122159,23.2727273 L24.2509469,23.2727273 C23.8494318,23.2727273 23.5236742,23.5984848 23.5236742,24 C23.5236742,24.4015152 23.8494318,24.7272727 24.2509469,24.7272727 L27.122159,24.7272727 C26.8617424,25.2121212 26.3508522,25.4545455 25.763731,25.4545455 L24.2509469,25.4545455 C23.9507576,25.4625947 23.6846592,25.6496212 23.5757576,25.9294508 C23.4663825,26.2092802 23.5359848,26.5274621 23.7514205,26.736269 L27.533144,30.3143939 C27.719697,30.5014205 27.9933712,30.5729166 28.2476326,30.5 C28.5018939,30.4270834 28.6964962,30.2215909 28.7552084,29.9640152 C28.8143939,29.7064394 28.7286932,29.436553 28.5312499,29.2604167 L26.0629735,26.9545455 C27.3162879,26.8394886 28.3607954,25.9469697 28.6699811,24.7272727 L29.5383522,24.7272727 C29.9398674,24.7272727 30.265625,24.4015152 30.265625,24 C30.265625,23.5984848 29.9398674,23.2727273 29.5383522,23.2727273 L28.6699811,23.2727273 C28.6131629,22.9706439 28.4981061,22.6827651 28.3319128,22.4242424 L29.5383522,22.4242424 Z" id="Path"></path>
                <path d="M11.4767993,25.7462121 C11.4767993,34.2613636 18.3797348,41.1642993 26.8948863,41.1642993 C35.4100378,41.1642993 42.3129735,34.2613636 42.3129735,25.7462121 C42.3129735,17.2310606 35.4100378,10.328125 26.8948863,10.328125 C18.3835227,10.3375947 11.486269,17.2348485 11.4767993,25.7462121 Z M15.2698863,26.5454545 C15.4436553,29.0984848 16.4564394,31.5222538 18.1505682,33.4398674 L16.5142046,35.076231 C14.3896781,32.7215909 13.1339962,29.7116478 12.9545455,26.5454545 L15.2698863,26.5454545 Z M19.1780303,34.469697 C21.0738636,36.1538825 23.4692235,37.170928 25.9981061,37.3650568 L25.9981061,39.6799242 C22.8560606,39.4801137 19.875,38.219697 17.5421401,36.1055872 L19.1780303,34.469697 Z M27.4526515,37.3854167 C30.0658144,37.2623105 32.5606061,36.2594697 34.532197,34.5397727 L36.1685606,36.1761364 C33.7604167,38.326231 30.6785038,39.5714962 27.4526515,39.6979166 L27.4526515,37.3854167 Z M26.8948863,35.9446023 C21.2627841,35.9446023 16.6964962,31.3787879 16.6964962,25.7462121 C16.6964962,20.1136364 21.2623105,15.5478219 26.8948863,15.5478219 C32.5274621,15.5478219 37.0932765,20.1141098 37.0932765,25.7462121 C37.0866478,31.3759469 32.5246212,35.9379735 26.8948863,35.9446023 Z M34.5885417,17.0023674 C32.6089016,15.252841 30.0913825,14.2315341 27.4526515,14.1070075 L27.4526515,11.7949811 C30.704072,11.9223485 33.8082387,13.1860795 36.2244318,15.3664773 L34.5885417,17.0023674 Z M25.9981061,14.127841 C23.4441287,14.3238636 21.0265152,15.3589016 19.122159,17.0724432 L17.4867424,15.4370265 C19.8271781,13.2930872 22.8304924,12.0142046 25.9981061,11.8125 L25.9981061,14.127841 Z M18.1013258,18.1089016 C16.4038825,20.0553977 15.4043561,22.5123105 15.2608902,25.0909091 L12.9469697,25.0909091 C13.094697,21.8991478 14.3371212,18.8560606 16.4649622,16.4725379 L18.1013258,18.1089016 Z M37.204072,35.1548296 L35.5686553,33.5189394 C37.3039772,31.5894886 38.342803,29.1344697 38.5194128,26.5454545 L40.8342802,26.5454545 C40.6529356,29.7476326 39.3702652,32.7888257 37.204072,35.1543561 L37.204072,35.1548296 Z M40.8423296,25.0909091 L38.5284091,25.0909091 C38.3830492,22.4763258 37.3570075,19.9876895 35.6178977,18.0293561 L37.2542613,16.3929925 C39.4247159,18.7874053 40.6931818,21.8626895 40.8423296,25.0909091 L40.8423296,25.0909091 Z" id="Shape"></path>
                <path d="M27.4526515,7.87878788 L27.4526515,0.727272727 C27.4526515,0.325757576 27.1268939,0 26.7253788,0 C26.3238636,0 25.9981061,0.325757576 25.9981061,0.727272727 L25.9981061,7.87878788 C25.9981061,8.28030303 26.3238636,8.60606061 26.7253788,8.60606061 C27.1268939,8.60606061 27.4526515,8.28030303 27.4526515,7.87878788 Z" id="Path"></path>
                <path d="M32.1799242,7.87878788 L32.1799242,3.03030303 C32.1799242,2.62878788 31.8541667,2.3030303 31.4526515,2.3030303 C31.0511364,2.3030303 30.7253788,2.62878788 30.7253788,3.03030303 L30.7253788,7.87878788 C30.7253788,8.28030303 31.0511364,8.60606061 31.4526515,8.60606061 C31.8541667,8.60606061 32.1799242,8.28030303 32.1799242,7.87878788 Z" id="Path"></path>
                <path d="M22.8465909,7.87878788 L22.8465909,3.03030303 C22.8465909,2.62878788 22.5208333,2.3030303 22.1193182,2.3030303 C21.717803,2.3030303 21.3920455,2.62878788 21.3920455,3.03030303 L21.3920455,7.87878788 C21.3920455,8.28030303 21.717803,8.60606061 22.1193182,8.60606061 C22.5208333,8.60606061 22.8465909,8.28030303 22.8465909,7.87878788 Z" id="Path"></path>
                <path d="M35.5738636,9.09090909 L35.5738636,5.33333333 C35.5738636,4.93181818 35.2481061,4.60606061 34.8465909,4.60606061 C34.4450758,4.60606061 34.1193182,4.93181818 34.1193182,5.33333333 L34.1193182,9.09090909 C34.1193182,9.49242424 34.4450758,9.81818182 34.8465909,9.81818182 C35.2481061,9.81818182 35.5738636,9.49242424 35.5738636,9.09090909 Z" id="Path"></path>
                <path d="M19.3314394,9.09090909 L19.3314394,5.33333333 C19.3314394,4.93181818 19.0056818,4.60606061 18.6041667,4.60606061 C18.2026515,4.60606061 17.8768939,4.93181818 17.8768939,5.33333333 L17.8768939,9.09090909 C17.8768939,9.49242424 18.2026515,9.81818182 18.6041667,9.81818182 C19.0056818,9.81818182 19.3314394,9.49242424 19.3314394,9.09090909 Z" id="Path"></path>
            </g>
        </g>
    </g>
</svg>
