<?xml version="1.0" encoding="UTF-8"?>
<svg width="60px" height="62px" viewBox="0 0 60 62" version="1.1" xmlns="http://www.w3.org/2000/svg" xmlns:xlink="http://www.w3.org/1999/xlink">

    <g id="Agra-tour-website-1" stroke="none" stroke-width="1" fill="none" fill-rule="evenodd" opacity="0.7">
        <g id="Agra-Tour-Website-1" transform="translate(-266.000000, -4955.000000)" fill="#000000" fill-rule="nonzero">
            <g id="Group-18" transform="translate(133.000000, 4920.000000)">
                <g id="Group-17">
                    <g id="Premium-tours" transform="translate(133.000000, 35.000000)">
                        <path d="M27.9310345,18.6229508 L24.8275862,18.6229508 L24.8275862,3.13114754 C24.8275862,1.4199702 23.4381251,0.0327868852 21.7241379,0.0327868852 L11.3793103,0.0327868852 C9.66532319,0.0327868852 8.27586207,1.4199702 8.27586207,3.13114754 L8.27586207,18.6229508 L5.17241379,18.6229508 C2.31576854,18.6229508 -2.31312658e-13,20.934923 -2.31772061e-13,23.7868852 L-2.31772061e-13,52.704918 C-0.00050173282,55.159174 1.72931248,57.2747226 4.13793103,57.7655738 L4.13793103,58.9016393 C4.13793103,60.6128167 5.52739216,62 7.24137931,62 C8.95536646,62 10.3448276,60.6128167 10.3448276,58.9016393 L10.3448276,57.8688525 L22.7586207,57.8688525 L22.7586207,58.9016393 C22.7586207,60.6128167 24.1480818,62 25.862069,62 C27.5760561,62 28.9655172,60.6128167 28.9655172,58.9016393 L28.9655172,57.7655738 C31.3741358,57.2747226 33.10395,55.159174 33.1034483,52.704918 L33.1034483,46.5081967 C33.1034483,45.9378043 32.6402946,45.4754098 32.0689655,45.4754098 C31.4976365,45.4754098 31.0344828,45.9378043 31.0344828,46.5081967 L31.0344828,52.704918 C31.0344828,54.4160954 29.6450216,55.8032787 27.9310345,55.8032787 L5.17241379,55.8032787 C3.45842664,55.8032787 2.06896552,54.4160954 2.06896552,52.704918 L2.06896552,23.7868852 C2.06896552,22.0757079 3.45842664,20.6885246 5.17241379,20.6885246 L27.9310345,20.6885246 C29.6450216,20.6885246 31.0344828,22.0757079 31.0344828,23.7868852 L31.0344828,42.3770492 C31.0344828,42.9474416 31.4976365,43.4098361 32.0689655,43.4098361 C32.6402946,43.4098361 33.1034483,42.9474416 33.1034483,42.3770492 L33.1034483,23.7868852 C33.1034483,20.934923 30.7876797,18.6229508 27.9310345,18.6229508 Z M26.8965517,57.8688525 L26.8965517,58.9016393 C26.8965517,59.4720318 26.433398,59.9344262 25.862069,59.9344262 C25.2907399,59.9344262 24.8275862,59.4720318 24.8275862,58.9016393 L24.8275862,57.8688525 L26.8965517,57.8688525 Z M8.27586207,57.8688525 L8.27586207,58.9016393 C8.27586207,59.4720318 7.81270836,59.9344262 7.24137931,59.9344262 C6.67005026,59.9344262 6.20689655,59.4720318 6.20689655,58.9016393 L6.20689655,57.8688525 L8.27586207,57.8688525 Z M10.3448276,3.13114754 C10.3448276,2.56075509 10.8079813,2.09836066 11.3793103,2.09836066 L21.7241379,2.09836066 C22.295467,2.09836066 22.7586207,2.56075509 22.7586207,3.13114754 L22.7586207,4.16393443 L10.3448276,4.16393443 L10.3448276,3.13114754 Z M10.3448276,6.2295082 L22.7586207,6.2295082 L22.7586207,18.6229508 L10.3448276,18.6229508 L10.3448276,6.2295082 Z" id="Shape"></path>
                        <path d="M24.8275862,26.8852459 L24.8275862,24.8196721 C24.8275862,23.6788872 23.9012788,22.7540984 22.7586207,22.7540984 L10.3448276,22.7540984 C9.20216948,22.7540984 8.27586207,23.6788872 8.27586207,24.8196721 L8.27586207,26.8852459 C8.27586207,28.0260308 9.20216948,28.9508197 10.3448276,28.9508197 L22.7586207,28.9508197 C23.9012788,28.9508197 24.8275862,28.0260308 24.8275862,26.8852459 Z M10.3448276,24.8196721 L22.7586207,24.8196721 L22.7586207,26.8852459 L10.3448276,26.8852459 L10.3448276,24.8196721 Z" id="Shape"></path>
                        <path d="M19.6551724,46.2086885 C19.5185674,45.7570685 19.0927965,45.4552667 18.6206897,45.4754098 L6.20689655,45.4754098 C5.6355675,45.4754098 5.17241379,45.9378043 5.17241379,46.5081967 L5.17241379,50.6393443 C5.17241379,51.2097367 5.6355675,51.6721311 6.20689655,51.6721311 L18.6206897,51.6721311 C19.0743688,51.6686348 19.4728246,51.370421 19.6034101,50.93664 C19.7339955,50.5028589 19.5662336,50.0347494 19.1896552,49.7821311 L17.3793103,48.5737705 L19.1896552,47.3654098 C19.5866913,47.1273439 19.7768539,46.6548261 19.6551724,46.2086885 L19.6551724,46.2086885 Z M7.24137931,47.5409836 L9.31034483,47.5409836 L9.31034483,49.6065574 L7.24137931,49.6065574 L7.24137931,47.5409836 Z M14.9482759,49.4309836 L15.2068966,49.6065574 L11.3793103,49.6065574 L11.3793103,47.5409836 L15.2068966,47.5409836 L14.9482759,47.7165574 C14.6623143,47.9084097 14.4907897,48.2298034 14.4907897,48.5737705 C14.4907897,48.9177376 14.6623143,49.2391313 14.9482759,49.4309836 Z" id="Shape"></path>
                        <path d="M24.8275862,40.3114754 C27.1129024,40.3114754 28.9655172,38.4618977 28.9655172,36.1803279 C28.9655172,33.8987581 27.1129024,32.0491803 24.8275862,32.0491803 C22.54227,32.0491803 20.6896552,33.8987581 20.6896552,36.1803279 C20.6896552,38.4618977 22.54227,40.3114754 24.8275862,40.3114754 Z M24.8275862,34.1147541 C25.9702443,34.1147541 26.8965517,35.039543 26.8965517,36.1803279 C26.8965517,37.3211128 25.9702443,38.2459016 24.8275862,38.2459016 C23.6849281,38.2459016 22.7586207,37.3211128 22.7586207,36.1803279 C22.7586207,35.039543 23.6849281,34.1147541 24.8275862,34.1147541 Z" id="Shape"></path>
                        <path d="M16.7172414,39.6918033 C17.0379197,39.8953236 17.4445469,39.9069408 17.7763581,39.7220618 C18.1081693,39.5371827 18.3117469,39.1855709 18.306604,38.8062401 C18.3014612,38.4269092 18.0884259,38.0809272 17.7517241,37.905082 L8.79310345,32.7411475 C8.55463062,32.603224 8.27089004,32.5660037 8.0048238,32.6377432 C7.73875756,32.7094827 7.51236333,32.8842508 7.37586207,33.1232787 L5.30689655,36.6967213 C5.17456614,36.9359958 5.13761898,37.2163339 5.20344828,37.4816393 C5.27478245,37.7480169 5.44984742,37.9748565 5.68965517,38.1116393 L14.6482759,43.2755738 C14.9698149,43.4600634 15.3655149,43.459281 15.6863194,43.2735213 C16.007124,43.0877616 16.2042953,42.745246 16.2035608,42.3749967 C16.2028263,42.0047474 16.0042977,41.6630142 15.6827586,41.4785246 L7.62413793,36.8309836 L8.65862069,35.0442623 L16.7172414,39.6918033 Z" id="Path"></path>
                        <path d="M54.8275862,18.6229508 L43.4482759,18.6229508 L43.4482759,6.04360656 C44.723563,6.49374349 46.1439874,6.06740338 46.9592159,4.98979855 C47.7744445,3.91219373 47.7966802,2.43156251 47.0141772,1.33004198 C46.2316741,0.228521447 44.8246907,-0.240140829 43.5364597,0.171623986 C42.2482288,0.5833888 41.3755088,1.78072608 41.3793103,3.13114754 L41.3793103,18.7262295 C38.9706918,19.2170807 37.2408776,21.3326293 37.2413793,23.7868852 L37.2413793,29.9836066 C37.2413793,30.553999 37.704533,31.0163934 38.2758621,31.0163934 C38.8471911,31.0163934 39.3103448,30.553999 39.3103448,29.9836066 L39.3103448,23.7868852 C39.3103448,22.0757079 40.6998059,20.6885246 42.4137931,20.6885246 L47.5862069,20.6885246 L47.5862069,27.9180328 C47.5862069,28.4884252 48.0493606,28.9508197 48.6206897,28.9508197 L52.7586207,28.9508197 C53.3299497,28.9508197 53.7931034,28.4884252 53.7931034,27.9180328 L53.7931034,23.7868852 C53.7931034,23.2164928 53.3299497,22.7540984 52.7586207,22.7540984 L49.6551724,22.7540984 L49.6551724,20.6885246 L54.8275862,20.6885246 C56.5415734,20.6885246 57.9310345,22.0757079 57.9310345,23.7868852 L57.9310345,52.704918 C57.9310345,54.4160954 56.5415734,55.8032787 54.8275862,55.8032787 L49.6551724,55.8032787 L49.6551724,53.7377049 L52.7586207,53.7377049 C53.3299497,53.7377049 53.7931034,53.2753105 53.7931034,52.704918 L53.7931034,48.5737705 C53.7931034,48.003378 53.3299497,47.5409836 52.7586207,47.5409836 L49.6551724,47.5409836 L49.6551724,45.4754098 L50.6896552,45.4754098 C51.8323133,45.4754098 52.7586207,44.550621 52.7586207,43.4098361 L52.7586207,33.0819672 C52.7586207,31.9411823 51.8323133,31.0163934 50.6896552,31.0163934 L46.5517241,31.0163934 C45.409066,31.0163934 44.4827586,31.9411823 44.4827586,33.0819672 L44.4827586,43.4098361 C44.4827586,44.550621 45.409066,45.4754098 46.5517241,45.4754098 L47.5862069,45.4754098 L47.5862069,55.8032787 L42.4137931,55.8032787 C40.6998059,55.8032787 39.3103448,54.4160954 39.3103448,52.704918 L39.3103448,34.1147541 C39.3103448,33.5443617 38.8471911,33.0819672 38.2758621,33.0819672 C37.704533,33.0819672 37.2413793,33.5443617 37.2413793,34.1147541 L37.2413793,52.704918 C37.2408776,55.159174 38.9706918,57.2747226 41.3793103,57.7655738 L41.3793103,58.9016393 C41.3793103,60.6128167 42.7687715,62 44.4827586,62 C46.1967458,62 47.5862069,60.6128167 47.5862069,58.9016393 L47.5862069,57.8688525 L49.6551724,57.8688525 L49.6551724,58.9016393 C49.6551724,60.6128167 51.0446335,62 52.7586207,62 C54.4726078,62 55.862069,60.6128167 55.862069,58.9016393 L55.862069,57.7655738 C58.2706875,57.2747226 60.0005017,55.159174 60,52.704918 L60,23.7868852 C60,20.934923 57.6842315,18.6229508 54.8275862,18.6229508 L54.8275862,18.6229508 Z M51.7241379,24.8196721 L51.7241379,26.8852459 L49.6551724,26.8852459 L49.6551724,24.8196721 L51.7241379,24.8196721 Z M44.4827586,2.09836066 C45.0540877,2.09836066 45.5172414,2.56075509 45.5172414,3.13114754 C45.5172414,3.70153999 45.0540877,4.16393443 44.4827586,4.16393443 C43.9114296,4.16393443 43.4482759,3.70153999 43.4482759,3.13114754 C43.4482759,2.56075509 43.9114296,2.09836066 44.4827586,2.09836066 Z M46.5517241,33.0819672 L50.6896552,33.0819672 L50.6896552,43.4098361 L46.5517241,43.4098361 L46.5517241,33.0819672 Z M51.7241379,49.6065574 L51.7241379,51.6721311 L49.6551724,51.6721311 L49.6551724,49.6065574 L51.7241379,49.6065574 Z M45.5172414,58.9016393 C45.5172414,59.4720318 45.0540877,59.9344262 44.4827586,59.9344262 C43.9114296,59.9344262 43.4482759,59.4720318 43.4482759,58.9016393 L43.4482759,57.8688525 L45.5172414,57.8688525 L45.5172414,58.9016393 Z M53.7931034,58.9016393 C53.7931034,59.4720318 53.3299497,59.9344262 52.7586207,59.9344262 C52.1872916,59.9344262 51.7241379,59.4720318 51.7241379,58.9016393 L51.7241379,57.8688525 L53.7931034,57.8688525 L53.7931034,58.9016393 Z" id="Shape"></path>
                    </g>
                </g>
            </g>
        </g>
    </g>
</svg>
