<?xml version="1.0" encoding="UTF-8"?>
<svg width="67px" height="64px" viewBox="0 0 67 64" version="1.1" xmlns="http://www.w3.org/2000/svg" xmlns:xlink="http://www.w3.org/1999/xlink">

    <g id="Agra-tour-website-1" stroke="none" stroke-width="1" fill="none" fill-rule="evenodd" opacity="0.7">
        <g id="Agra-Tour-Website-1" transform="translate(-1112.000000, -4958.000000)" fill="#000000" fill-rule="nonzero">
            <g id="service" transform="translate(1149.000000, 4985.000000) rotate(-35.000000) translate(-1149.000000, -4985.000000) translate(1119.000000, 4955.000000)">
                <path d="M23,42 L15,42 C14.4477539,42 14,41.5522461 14,41 C14,40.4477539 13.5522461,40 13,40 C12.4477539,40 12,40.4477539 12,41 C12,42.6567383 13.3432617,44 15,44 L23,44 C24.6567383,44 26,45.3432617 26,47 L26,55 C26,56.6567383 24.6567383,58 23,58 L22,58 L22,47 C22,46.4477539 21.5522461,46 21,46 C20.4477539,46 20,46.4477539 20,47 L20,58 L13,58 C6.92480475,58 2,53.0751953 2,47 L2,13 C2,6.92480475 6.92480475,2 13,2 L23,2 C24.6567383,2 26,3.34326175 26,5 L26,13 C26,14.6567383 24.6567383,16 23,16 L22,16 L22,5 C22,4.44775388 21.5522461,4 21,4 C20.4477539,4 20,4.44775388 20,5 L20,16 L15,16 C13.3432617,16 12,17.3432617 12,19 L12,35 C12,35.5522461 12.4477539,36 13,36 C13.5522461,36 14,35.5522461 14,35 L14,19 C14,18.4477539 14.4477539,18 15,18 L23,18 C25.7612305,18 28,15.7612305 28,13 L28,5 C28,2.2387695 25.7612305,0 23,0 L13,0 C5.8203125,0 0,5.8203125 0,13 L0,47 C0,54.1796875 5.8203125,60 13,60 L23,60 C25.7612305,60 28,57.7612305 28,55 L28,47 C28,44.2387695 25.7612305,42 23,42 Z" id="Path"></path>
                <path d="M53.6098632,40.8999024 C53.3730469,40.7783203 53.0966797,40.7563476 52.8432617,40.8388673 C52.5898437,40.9213868 52.3798827,41.1020508 52.2597656,41.3398438 C50.0776367,45.6547851 46.6865235,49.2407226 42.5,51.6601563 C42.0356445,51.934082 41.8720702,52.5268555 42.1298827,53 L43.5297851,55.4199219 L36.3798827,54 L38.7299805,47.1000976 L40.1298827,49.5297851 C40.2636719,49.7597656 40.4833985,49.9267578 40.7402344,49.9946289 C40.9975586,50.0620118 41.2705077,50.024414 41.5,49.8901368 C44.730957,48.0332031 47.4521485,45.4047851 49.4199219,42.2402344 C49.7089844,41.7753906 49.5708007,41.165039 49.1098632,40.8701172 C48.6435547,40.5742188 48.0253906,40.7133789 47.7299805,41.1801757 C46.1103515,43.78125 43.930664,45.987793 41.3500976,47.6401367 L39.3500976,44.2001952 C39.1542969,43.8613281 38.7797851,43.6679687 38.390625,43.7045899 C38.0014649,43.7407226 37.6689452,44.0009765 37.540039,44.3701172 L34.1201172,54.4702149 C34.0283202,54.7421875 34.0576172,55.0405274 34.2011719,55.2895507 C34.3447265,55.538086 34.5883789,55.7133789 34.8701172,55.7700195 L45.2998047,57.8300781 C45.366211,57.8398438 45.4335937,57.8398438 45.5,57.8300781 C45.8217774,57.8286132 46.1235351,57.6723632 46.3100586,57.4101562 C46.5209961,57.0810547 46.5209961,56.6591797 46.3100586,56.3300781 L44.3100586,52.8500976 C48.4438476,50.2636719 51.7939452,46.5986328 54,42.25 C54.2612305,41.769043 54.0874024,41.1674805 53.6098632,40.8999024 L53.6098632,40.8999024 Z" id="Path"></path>
                <path d="M51,21 C50.5952149,21.0019531 50.1914063,21.0283203 49.790039,21.0800781 C47.3022461,17.574707 43.1293945,15.6674805 38.8510742,16.0805664 C34.5722656,16.493164 30.8413086,19.1635743 29.0698242,23.0800781 C25.5058594,22.5917969 22.053711,24.5424805 20.633789,27.8481445 C19.2138672,31.1538086 20.1748047,35.0004883 22.9824219,37.2495118 C25.7905274,39.4990235 29.7539062,39.597168 32.6699219,37.4902344 C36.980957,40.8012695 42.9790039,40.8012695 47.290039,37.4902344 C47.7290039,37.1533203 47.8120118,36.5239257 47.4750976,36.084961 C47.1381836,35.6459961 46.5092774,35.5629882 46.0698243,35.8999024 C44.3383789,37.2592774 42.2011719,37.9985351 40,38 C37.5454101,37.9951172 35.178711,37.0874024 33.3500976,35.4501952 C32.9692383,35.1064452 32.390625,35.1064452 32.0097656,35.4501952 C30.0219726,37.2475586 27.0830078,37.5092774 24.809082,36.090332 C22.5351563,34.6713867 21.4780274,31.9169922 22.2192383,29.3408202 C22.9604493,26.7651367 25.3198243,24.9936524 28,25 C28.4853515,25.0024414 28.96875,25.0629882 29.4399414,25.1801757 C29.9335938,25.303711 30.4418945,25.0371094 30.6201173,24.5600586 C31.940918,20.9853515 35.178711,18.472168 38.9692383,18.0795899 C42.7597656,17.6865235 46.444336,19.4824219 48.4702149,22.709961 C48.6928711,23.0688476 49.1171875,23.2490235 49.5297851,23.1601562 C50.0126953,23.0527344 50.5053711,22.9990235 51,23 C54.866211,23 58,26.133789 58,30 C58,33.866211 54.866211,37 51,37 C50.4477539,37 50,37.4477539 50,38 C50,38.5522461 50.4477539,39 51,39 C55.9707031,39 60,34.9707031 60,30 C60,25.0292969 55.9707031,21 51,21 L51,21 Z" id="Path"></path>
                <path d="M31,9 C35.9423828,9.22412112 40.647461,11.1821289 44.290039,14.5297851 C44.4736327,14.6967774 44.7124024,14.7895508 44.959961,14.790039 C45.2407226,14.7919922 45.5092774,14.6757812 45.7001952,14.4702149 C46.0717774,14.0634765 46.0449219,13.4331055 45.6401367,13.0600586 C41.6401367,9.38818362 36.4746094,7.24267575 31.0498048,7 C30.4975586,7 30.0498048,7.44775388 30.0498048,8 C30.0493164,8.53320312 30.4672851,8.9731445 31,9 L31,9 Z" id="Path"></path>
                <path d="M31,5 C39.5766601,5.3325195 47.378418,10.0551757 51.6499024,17.5 C51.8701172,17.8901367 52.0698242,18.2700195 52.2597656,18.6601562 C52.4311524,18.9995117 52.7797851,19.2124024 53.1601562,19.209961 C53.3164062,19.2070312 53.4697265,19.1694336 53.6098632,19.1000976 C53.8481445,18.9799805 54.0288086,18.7700195 54.1113281,18.5166015 C54.1938476,18.2631836 54.171875,17.9873047 54.0498047,17.75 C53.8300781,17.3300781 53.6201172,16.9199219 53.3798827,16.5 C48.7543945,8.43457025 40.2915039,3.33007812 31,3 C30.4477539,3 30,3.44775388 30,4 C30,4.55224612 30.4477539,5 31,5 L31,5 Z" id="Path"></path>
                <path d="M39,30 C39.5522461,30 40,29.5522461 40,29 L40,25 C40,24.4477539 39.5522461,24 39,24 L35,24 C34.4477539,24 34,24.4477539 34,25 C34,25.5522461 34.4477539,26 35,26 L38,26 L38,28 L35,28 C34.4477539,28 34,28.4477539 34,29 L34,33 C34,33.5522461 34.4477539,34 35,34 L39,34 C39.5522461,34 40,33.5522461 40,33 C40,32.4477539 39.5522461,32 39,32 L36,32 L36,30 L39,30 Z" id="Path"></path>
                <path d="M46,34 C46.5522461,34 47,33.5522461 47,33 L47,25 C47,24.4477539 46.5522461,24 46,24 C45.4477539,24 45,24.4477539 45,25 L45,28 L43,28 L43,25 C43,24.4477539 42.5522461,24 42,24 C41.4477539,24 41,24.4477539 41,25 L41,29 C41,29.5522461 41.4477539,30 42,30 L45,30 L45,33 C45,33.5522461 45.4477539,34 46,34 Z" id="Path"></path>
            </g>
        </g>
    </g>
</svg>
